<svg xmlns="http://www.w3.org/2000/svg" width="33.384" height="32" viewBox="0 0 33.384 32">
  <path id="icon_VL" d="M693.094,2.9a16.336,16.336,0,0,0-4.591.538,27.107,27.107,0,0,0-4.109,1.658s-2.111,1.233-.113,2.168,5.045,2.423,5.045,2.423a8.356,8.356,0,0,0,3.755.794c2.664.1,3.982.057,3.982.057l1.488-4.818s.992-1.871-1.644-2.423A17.2,17.2,0,0,0,693.094,2.9Zm7.369,1.715c-.623-.014-1.134.326-1.006,1.077l1.516,4.818h4.96s1.318-.4.609-1.29-3.514-3.585-4.776-4.109A2.228,2.228,0,0,0,700.463,4.61ZM707,11.015a1.754,1.754,0,0,0-1.091.453l-3.684,2.579s.822,2.763,1.176,3.613a10.323,10.323,0,0,0,1.176,1.9l3.684,2.607a.764.764,0,0,0,1.176-.241c.439-.794.3-2.508.3-4.166s-1.049-5.427-1.927-6.348A1.1,1.1,0,0,0,707,11.015Zm-16.353.34a3.313,3.313,0,0,0-.794.085l-10.571.524a1.934,1.934,0,0,0-2.026,1.587,16.528,16.528,0,0,0-.879,5.4c-.113,3.585,1.927,7.666,2.962,9.126a1.91,1.91,0,0,0,2.636.368s9.579-7.227,11.067-8.4a6.115,6.115,0,0,0,1.927-3l.992-2.9-2.806-1.956a4.3,4.3,0,0,0-2.508-.822Zm8.488,4.775-3.245,2.352A9.227,9.227,0,0,0,693.93,21.8c-.609,1.956-3.217,10.642-3.217,10.642s-1.119,2.537,2.367,2.452a17.39,17.39,0,0,0,9.027-2.48c3.047-1.814,3.869-3.486,3.869-3.486s.652-.453.028-2.168-2.494-6.745-2.494-6.745a7.769,7.769,0,0,0-1.587-1.743c-.949-.709-2.792-2.14-2.792-2.14Z" transform="translate(-676.368 -2.895)" fill="#ff000e"/>
</svg>
