<svg xmlns="http://www.w3.org/2000/svg" width="35.985" height="24" viewBox="0 0 35.985 24">
  <path id="Icon_ionic-ios-arrow-round-forward" data-name="Icon ionic-ios-arrow-round-forward" d="M30.823,11.711a1.633,1.633,0,0,0-.012,2.3l7.6,7.612H9.487a1.625,1.625,0,0,0,0,3.25H38.4l-7.6,7.612a1.645,1.645,0,0,0,.012,2.3,1.618,1.618,0,0,0,2.287-.012L43.4,24.4h0a1.825,1.825,0,0,0,.337-.512,1.551,1.551,0,0,0,.125-.625,1.629,1.629,0,0,0-.462-1.137L33.1,11.749A1.592,1.592,0,0,0,30.823,11.711Z" transform="translate(-7.875 -11.252)" fill="#fff"/>
</svg>
