<svg id="Calender" xmlns="http://www.w3.org/2000/svg" xmlns:xlink="http://www.w3.org/1999/xlink" width="24" height="24" viewBox="0 0 24 24">
  <defs>
    <clipPath id="clip-path">
      <rect id="Rectangle_3778" data-name="Rectangle 3778" width="24" height="24" fill="#fff"/>
    </clipPath>
  </defs>
  <g id="Mask_Group_2990" data-name="Mask Group 2990" clip-path="url(#clip-path)">
    <g id="calendar">
      <path id="Path_11890" data-name="Path 11890" d="M19,2H18V1a1,1,0,1,0-2,0V2H8V1A1,1,0,1,0,6,1V2H5A5.006,5.006,0,0,0,0,7V19a5.006,5.006,0,0,0,5,5H19a5.006,5.006,0,0,0,5-5V7A5.006,5.006,0,0,0,19,2ZM2,7A3,3,0,0,1,5,4H19a3,3,0,0,1,3,3V8H2ZM19,22H5a3,3,0,0,1-3-3V10H22v9A3,3,0,0,1,19,22Z" fill="#fff"/>
      <circle id="Ellipse_162" data-name="Ellipse 162" cx="1.5" cy="1.5" r="1.5" transform="translate(10.5 13.5)" fill="#fff"/>
      <circle id="Ellipse_163" data-name="Ellipse 163" cx="1.5" cy="1.5" r="1.5" transform="translate(5.5 13.5)" fill="#fff"/>
      <circle id="Ellipse_164" data-name="Ellipse 164" cx="1.5" cy="1.5" r="1.5" transform="translate(15.5 13.5)" fill="#fff"/>
    </g>
  </g>
</svg>
