<svg id="Video_quayso2" xmlns="http://www.w3.org/2000/svg" xmlns:xlink="http://www.w3.org/1999/xlink" width="20" height="20" viewBox="0 0 20 20">
  <defs>
    <clipPath id="clip-path">
      <rect id="Rectangle_3777" data-name="Rectangle 3777" width="20" height="20" transform="translate(54 125)" fill="#c4c4c4"/>
    </clipPath>
  </defs>
  <g id="Mask_Group_2985" data-name="Mask Group 2985" transform="translate(-54 -125)" clip-path="url(#clip-path)">
    <path id="chart-connected" d="M20,9.985a3.328,3.328,0,0,0-2.172-3.112L17.793,6.8a8.39,8.39,0,0,0-4.411-4.515l-.274-.12a3.317,3.317,0,0,0-6.217,0l-.348.157A8.49,8.49,0,0,0,2.18,6.87a3.316,3.316,0,0,0-.025,6.222l.107.25a8.415,8.415,0,0,0,4.3,4.356l.327.147a3.318,3.318,0,0,0,6.216,0l.306-.136A8.493,8.493,0,0,0,17.836,13.1,3.333,3.333,0,0,0,20,9.985Zm-6.755,5.942a3.325,3.325,0,0,0-6.488,0,6.743,6.743,0,0,1-2.692-2.695,3.325,3.325,0,0,0,.021-6.482A6.824,6.824,0,0,1,6.754,4.083a3.325,3.325,0,0,0,6.487,0,6.853,6.853,0,0,1,2.674,2.66,3.325,3.325,0,0,0,.012,6.487A6.838,6.838,0,0,1,13.242,15.926Z" transform="translate(54.002 124.998)" fill="#c4c4c4"/>
  </g>
</svg>
