<svg id="Khampha1" xmlns="http://www.w3.org/2000/svg" xmlns:xlink="http://www.w3.org/1999/xlink" width="20" height="20" viewBox="0 0 20 20">
  <defs>
    <clipPath id="clip-path">
      <rect id="Rectangle_1603" data-name="Rectangle 1603" width="20" height="20" fill="none"/>
    </clipPath>
  </defs>
  <g id="Mask_Group_7" data-name="Mask Group 7" clip-path="url(#clip-path)">
    <path id="map-marker" d="M11.667,5.833A1.667,1.667,0,1,1,10,4.166,1.667,1.667,0,0,1,11.667,5.833Zm2.465,4.32-2.548,2.526a2.224,2.224,0,0,1-3.158,0L5.878,10.166a6.052,6.052,0,0,1-.01-8.417,5.75,5.75,0,0,1,8.263,0A6.047,6.047,0,0,1,14.132,10.153Zm-.8-4.32A3.333,3.333,0,1,0,10,9.166,3.333,3.333,0,0,0,13.333,5.833Zm3.961,1.833a7.583,7.583,0,0,1-1.97,3.653l-2.565,2.544a3.889,3.889,0,0,1-2.75,1.142h0a3.887,3.887,0,0,1-2.75-1.138L4.707,11.349A7.667,7.667,0,0,1,2.736,7.756a4.222,4.222,0,0,0-1.454.9A4.122,4.122,0,0,0,0,11.666v3.4a4.177,4.177,0,0,0,3,4l2.392.75A4.151,4.151,0,0,0,6.632,20a4.23,4.23,0,0,0,1.129-.155l4.817-1.425a2.48,2.48,0,0,1,1.311,0l1.989.667A3.333,3.333,0,0,0,20,15.851V11.56a4.174,4.174,0,0,0-2.706-3.893Z" transform="translate(0 0.001)" fill="#ff000e"/>
  </g>
</svg>
