<svg id="Home22" xmlns="http://www.w3.org/2000/svg" xmlns:xlink="http://www.w3.org/1999/xlink" width="20" height="20" viewBox="0 0 20 20">
  <defs>
    <clipPath id="clip-path">
      <rect id="Rectangle_3615" data-name="Rectangle 3615" width="20" height="20" fill="#ff000e"/>
    </clipPath>
  </defs>
  <g id="Mask_Group_31" data-name="Mask Group 31" clip-path="url(#clip-path)">
    <path id="garage" d="M13.333,9.166H6.667A1.667,1.667,0,0,0,5,10.833V20H15V10.833A1.667,1.667,0,0,0,13.333,9.166Zm-2.5,9.167H9.167a.833.833,0,1,1,0-1.667h1.667a.833.833,0,1,1,0,1.667ZM20,8.1v7.73a4.174,4.174,0,0,1-3.333,4.083V10.833A3.333,3.333,0,0,0,13.333,7.5H6.667a3.333,3.333,0,0,0-3.333,3.333v9.083A4.174,4.174,0,0,1,0,15.833V8.1A4.16,4.16,0,0,1,1.833,4.648L7.667.712a4.151,4.151,0,0,1,4.662,0l5.833,3.937A4.161,4.161,0,0,1,20,8.1Z" transform="translate(0 0.004)" fill="#ff000e"/>
  </g>
</svg>
