<svg id="Component_53_1" data-name="Component 53 – 1" xmlns="http://www.w3.org/2000/svg" xmlns:xlink="http://www.w3.org/1999/xlink" width="40" height="40" viewBox="0 0 40 40">
  <defs>
    <clipPath id="clip-path">
      <rect id="Rectangle_3909" data-name="Rectangle 3909" width="24" height="24" transform="translate(106 326)" fill="#fff"/>
    </clipPath>
  </defs>
  <circle id="Ellipse_381" data-name="Ellipse 381" cx="20" cy="20" r="20" fill="#ff000e"/>
  <g id="Component_44_1" data-name="Component 44 – 1" transform="translate(8 8)">
    <g id="Mask_Group_2999" data-name="Mask Group 2999" transform="translate(-106 -326)" clip-path="url(#clip-path)">
      <path id="ticket" d="M6,24H8.13a2.02,2.02,0,0,0,1.941-1.532,2,2,0,0,1,3.858,0A2.02,2.02,0,0,0,15.87,24H18a3,3,0,0,0,3-3V17H17a1,1,0,0,1,0-2h4V5a5.006,5.006,0,0,0-5-5h-.13a2.02,2.02,0,0,0-1.941,1.532,2,2,0,0,1-3.858,0A2.02,2.02,0,0,0,8.13,0H8A5.006,5.006,0,0,0,3,5V15H7a1,1,0,0,1,0,2H3v4a3,3,0,0,0,3,3Zm5-9h2a1,1,0,0,1,0,2H11a1,1,0,0,1,0-2Z" transform="translate(106 326)" fill="#fff"/>
    </g>
  </g>
</svg>
