<svg id="Component_59_2" data-name="Component 59 – 2" xmlns="http://www.w3.org/2000/svg" xmlns:xlink="http://www.w3.org/1999/xlink" width="40" height="40" viewBox="0 0 40 40">
  <defs>
    <clipPath id="clip-path">
      <rect id="Rectangle_3778" data-name="Rectangle 3778" width="24" height="24" transform="translate(270 125)" fill="#fff"/>
    </clipPath>
  </defs>
  <circle id="Ellipse_381" data-name="Ellipse 381" cx="20" cy="20" r="20" fill="#ff000e"/>
  <g id="Component_49_2" data-name="Component 49 – 2" transform="translate(8 8)">
    <g id="Mask_Group_3004" data-name="Mask Group 3004" transform="translate(-270 -125)" clip-path="url(#clip-path)">
      <path id="transporter-1" d="M9.5,2.5A2.5,2.5,0,1,1,12,5,2.5,2.5,0,0,1,9.5,2.5ZM4.159,13.459,7.478,8.3a4.976,4.976,0,0,1,4.2-2.3h.633a4.979,4.979,0,0,1,4.206,2.3l3.318,5.163a1,1,0,1,1-1.682,1.082L15,9.627V13a1,1,0,0,1-1,1H10a1,1,0,0,1-1-1V9.628L5.84,14.541a1,1,0,1,1-1.682-1.082ZM19,22H5a1,1,0,0,0,0,2H19a1,1,0,0,0,0-2ZM9,17a1,1,0,0,0,0,2h6a1,1,0,0,0,0-2ZM4.47,6.243l.357-1.43,1.432-.385a1,1,0,0,0-.035-1.94l-1.4-.325L4.469.757a1,1,0,0,0-1.94,0L2.175,2.175.757,2.529a1,1,0,0,0,0,1.941l1.418.354.354,1.418a1,1,0,0,0,1.94,0ZM23.515,4.265l-1.3-.492-.52-1.3a.751.751,0,0,0-1.394,0L19.779,3.78,18.471,4.3a.751.751,0,0,0,0,1.394l1.308.523L20.3,7.528a.751.751,0,0,0,1.394,0l.526-1.316,1.318-.556a.75.75,0,0,0-.025-1.392Z" transform="translate(270 125)" fill="#fff"/>
    </g>
  </g>
</svg>
