<svg id="Component_58_2" data-name="Component 58 – 2" xmlns="http://www.w3.org/2000/svg" xmlns:xlink="http://www.w3.org/1999/xlink" width="40" height="40" viewBox="0 0 40 40">
  <defs>
    <clipPath id="clip-path">
      <rect id="Rectangle_3909" data-name="Rectangle 3909" width="24" height="24" transform="translate(106 326)" fill="#fff"/>
    </clipPath>
  </defs>
  <circle id="Ellipse_381" data-name="Ellipse 381" cx="20" cy="20" r="20" fill="#ff000e"/>
  <g id="Component_46_1" data-name="Component 46 – 1" transform="translate(8 8)">
    <g id="Mask_Group_3001" data-name="Mask Group 3001" transform="translate(-106 -326)" clip-path="url(#clip-path)">
      <path id="globe-alt" d="M5,8a8,8,0,1,1,8,8A8,8,0,0,1,5,8Zm17.646,5.383a1,1,0,0,0-1.39.26A10,10,0,1,1,5.285,1.637,1,1,0,0,0,3.743.363,11.994,11.994,0,0,0,12,19.949V22H8a1,1,0,1,0,0,2H18a1,1,0,1,0,0-2H14V19.939a11.992,11.992,0,0,0,8.907-5.166,1,1,0,0,0-.261-1.39Z" transform="translate(105.959 326)" fill="#fff"/>
    </g>
  </g>
</svg>
