<svg id="Vietlott_logo" xmlns="http://www.w3.org/2000/svg" width="116.99" height="38" viewBox="0 0 116.99 38">
  <path id="path5116" d="M4.254,58.1a4.291,4.291,0,0,0-1.454.309S3.894,66.7,4.293,69.038a4.175,4.175,0,0,0,4.337,3.835c2.445,0,4.144-2.973,4.144-2.973l5.984-11.388c-4.092-1.313-5.237,1.75-5.237,1.75L9.826,67.108s-.6,1.673-1.2,1.621-.746-1.145-.746-1.145-.952-6.653-1.248-7.85a2.055,2.055,0,0,0-2.046-1.621A2.8,2.8,0,0,0,4.254,58.1Zm69,.013s-3.564-.051-4.208,3.23-1.441,7.9-1.441,7.9-.8,3.346,3.037,3.474a3.526,3.526,0,0,0,3.77-3.2s-3.268.836-2.9-1.248l.772-4.182a3.345,3.345,0,0,0,3.564-3.14H72.789Zm8.248,0s-3.564-.051-4.208,3.23-1.441,7.9-1.441,7.9-.8,3.346,3.037,3.474a3.526,3.526,0,0,0,3.77-3.2s-3.268.836-2.9-1.248l.772-4.182a3.345,3.345,0,0,0,3.564-3.14H81.038Zm-32.389,0a5.916,5.916,0,0,0-.643.039L46.5,69.308s-.849,3.281,2.947,3.2,3.809-3.166,3.809-3.166-3.114.978-2.792-1.145,1.248-7.3,1.248-7.3a2.4,2.4,0,0,0-2.6-2.792Zm-6.846.039a3.951,3.951,0,0,0-3.95,3.1L36.99,69.218s-.849,3.539,3.114,3.449a3.688,3.688,0,0,0,3.59-3.166s-2.548.836-2.921-.811l.824-4.62a3.121,3.121,0,0,0,3.487-3.14H42.138l.425-2.779a1.492,1.492,0,0,1-.3,0Zm19.045,2.5s-7,.051-7.927,6.923c0,0-.27,5.2,5.829,5.147a7.547,7.547,0,0,0,7.528-7.065A5.434,5.434,0,0,0,61.311,60.648ZM31.238,60.7a9.19,9.19,0,0,0-4.131,1.145s-3.693,2.059-3.294,5.906c0,0-.154,4.928,5.688,5.121,0,0,4.71-.09,5.958-4.182-1.184,1.081-5.006,2.007-6.974.077a3.467,3.467,0,0,1,.978-5.456c2.767-.862,3.114,1.107,3.114,1.107-.051,3.011-3.719,2.445-3.719,2.445s1.544,2.586,5.636.528c0,0,3.243-1.621.991-5.121a5.849,5.849,0,0,0-4.246-1.57Zm-9.548,1.84s-3.371-.09-4.041,2.2a29.529,29.529,0,0,0-.9,4.761s-.553,3.14,3.14,3.256a3.417,3.417,0,0,0,3.667-3.178s-2.985.721-2.9-.952c.116-1.686,1.029-6.087,1.029-6.087Zm39.08,1.145a2.411,2.411,0,0,1,2.11,2.419A3.592,3.592,0,0,1,59.7,69.591a1.211,1.211,0,0,1-.528-.026A2.422,2.422,0,0,1,57.193,67.2a3.928,3.928,0,0,1,3.1-3.5A1.469,1.469,0,0,1,60.771,63.685Z" transform="translate(-2.8 -50.996)" fill="#fff"/>
  <path id="path5108" d="M132.581,58.291c-1.042,0-2.522.257-2.96,1.57l-.322,1.814s3.371.425,3.886-1.107a12.426,12.426,0,0,0,.5-2.2A5.944,5.944,0,0,0,132.581,58.291Z" transform="translate(-113.022 -51.162)" fill="#fff"/>
  <path id="path5083" d="M691.556,2.9a14.833,14.833,0,0,0-4.169.489,24.616,24.616,0,0,0-3.732,1.506s-1.917,1.12-.1,1.969,4.581,2.2,4.581,2.2a7.587,7.587,0,0,0,3.41.721c2.419.09,3.616.051,3.616.051l1.351-4.375s.9-1.7-1.493-2.2A15.615,15.615,0,0,0,691.556,2.9Zm6.691,1.557c-.566-.013-1.029.3-.914.978l1.377,4.375h4.5s1.2-.36.553-1.171A18.879,18.879,0,0,0,699.432,4.9,2.024,2.024,0,0,0,698.248,4.452Zm5.932,5.816a1.593,1.593,0,0,0-.991.412l-3.346,2.342s.746,2.509,1.068,3.281a9.379,9.379,0,0,0,1.068,1.724l3.346,2.368a.694.694,0,0,0,1.068-.219c.4-.721.27-2.278.27-3.783s-.952-4.928-1.75-5.765A1,1,0,0,0,704.18,10.269Zm-14.85.309a3.008,3.008,0,0,0-.721.077l-9.6.476a1.756,1.756,0,0,0-1.84,1.441,15.009,15.009,0,0,0-.8,4.9,15.979,15.979,0,0,0,2.689,8.287,1.735,1.735,0,0,0,2.394.335s8.7-6.563,10.05-7.631a5.553,5.553,0,0,0,1.75-2.728l.9-2.638-2.548-1.776a3.908,3.908,0,0,0-2.278-.746Zm7.708,4.337-2.947,2.136a8.38,8.38,0,0,0-1.776,3.011c-.553,1.776-2.921,9.664-2.921,9.664s-1.017,2.3,2.149,2.226a15.792,15.792,0,0,0,8.2-2.252,9.082,9.082,0,0,0,3.513-3.166s.592-.412.026-1.969-2.265-6.125-2.265-6.125a7.057,7.057,0,0,0-1.441-1.583c-.862-.643-2.535-1.943-2.535-1.943Z" transform="translate(-589.693 -2.895)" fill="#fff"/>
  <g id="Group_1" data-name="Group 1" transform="translate(21.618 28.465)">
    <path id="Path_1" data-name="Path 1" d="M175.111,239.583a4.177,4.177,0,0,1-1.686.309A2.458,2.458,0,0,1,170.8,237.2a4.011,4.011,0,0,1,1.39-3.127,3.693,3.693,0,0,1,2.445-.875,2.51,2.51,0,0,1,1.4.322l-.257.643a2.9,2.9,0,0,0-3.153.463,3.411,3.411,0,0,0-.991,2.471,1.858,1.858,0,0,0,1.982,2.123,3.154,3.154,0,0,0,1.39-.283Z" transform="translate(-170.8 -232.029)" fill="#fff"/>
    <path id="Path_2" data-name="Path 2" d="M215.77,242.2a1.891,1.891,0,0,1,.077.54.884.884,0,0,1-1,.978,2.122,2.122,0,0,1,.27,1.094,2.793,2.793,0,0,1-2.586,2.934,1.779,1.779,0,0,1-1.827-1.917,2.8,2.8,0,0,1,2.586-2.96,1.81,1.81,0,0,1,.8.167,1.582,1.582,0,0,0,.669.219.421.421,0,0,0,.45-.476,1.4,1.4,0,0,0-.09-.476Zm-4.234,3.6c0,.759.412,1.313,1.094,1.313.939,0,1.66-1.21,1.66-2.3a1.149,1.149,0,0,0-1.094-1.3C212.206,243.513,211.524,244.735,211.536,245.8Z" transform="translate(-205.566 -239.871)" fill="#fff"/>
    <path id="Path_3" data-name="Path 3" d="M263.1,238.146l1.3-6.846h.8l-.579,3.011h.013a2.024,2.024,0,0,1,1.673-.939,1.129,1.129,0,0,1,1.158,1.248,3.96,3.96,0,0,1-.077.785l-.515,2.728h-.8l.515-2.689a4.193,4.193,0,0,0,.051-.643.677.677,0,0,0-.721-.772,2.015,2.015,0,0,0-1.6,1.776l-.437,2.329H263.1Z" transform="translate(-251.223 -230.373)" fill="#fff"/>
    <path id="Path_4" data-name="Path 4" d="M308.014,236.883a2.793,2.793,0,0,1-2.586,2.934A1.779,1.779,0,0,1,303.6,237.9a2.8,2.8,0,0,1,2.586-2.96A1.782,1.782,0,0,1,308.014,236.883Zm-3.577.991c0,.759.412,1.313,1.094,1.313.939,0,1.66-1.21,1.66-2.3a1.149,1.149,0,0,0-1.094-1.3C305.093,235.584,304.423,236.806,304.436,237.874Zm.27,3.1a.492.492,0,0,1,.5-.489.5.5,0,0,1,0,.991A.5.5,0,0,1,304.707,240.975Zm2.162-7.875.669,1.377h-.592l-.412-.888h-.013l-.669.888h-.643l1.107-1.377Z" transform="translate(-286.511 -231.942)" fill="#fff"/>
    <path id="Path_5" data-name="Path 5" d="M342.2,240.411l.9-4.671h.8l-.9,4.671Zm1.042-5.971a.533.533,0,0,1,.528-.54.467.467,0,0,1,.476.5.528.528,0,0,1-.541.54A.457.457,0,0,1,343.242,234.44Z" transform="translate(-320.144 -232.639)" fill="#fff"/>
    <path id="Path_6" data-name="Path 6" d="M377.238,232.3l.18-1h.8l-.193,1h.772l-.09.515h-.772l-.733,3.86c-.09.476-.167,1.017-.206,1.48h-.734l.129-.927h-.013a1.985,1.985,0,0,1-1.673,1.029c-.9,0-1.4-.746-1.4-1.7a3.065,3.065,0,0,1,2.882-3.178,1.953,1.953,0,0,1,.824.167l.129-.721h-1.879l.09-.515h1.892Zm-.347,1.9a1.506,1.506,0,0,0-.772-.193,2.286,2.286,0,0,0-1.982,2.432c0,.553.193,1.145.875,1.145.618,0,1.364-.708,1.557-1.75Z" transform="translate(-347.242 -230.373)" fill="#fff"/>
    <path id="Path_7" data-name="Path 7" d="M416.02,231.6a3.178,3.178,0,0,1-1.544.36A1.678,1.678,0,0,1,412.7,230.1c0-1.4,1.042-3,2.548-3a1.207,1.207,0,0,1,1.364,1.2c0,1.222-1.377,1.557-3.1,1.518a1.977,1.977,0,0,0,.09.888,1.061,1.061,0,0,0,1.042.631,2.551,2.551,0,0,0,1.248-.322Zm-.888-3.873c-.759,0-1.325.746-1.518,1.48,1.248.013,2.239-.154,2.239-.875C415.84,227.935,415.557,227.729,415.132,227.729Zm.54-2.535.6,1.377h-.6l-.36-.9h-.026l-.6.9h-.643l1.017-1.377Zm.6.4c.206-.36.592-.45.592-.759a.287.287,0,0,0-.3-.27.827.827,0,0,0-.515.283l-.244-.257a1.179,1.179,0,0,1,.914-.489.669.669,0,0,1,.734.631c0,.5-.528.656-.785,1.029Z" transform="translate(-381.572 -224.1)" fill="#fff"/>
    <path id="Path_8" data-name="Path 8" d="M463.814,238.5l-.245,1.248h1.12l-.129.631h-1.12L463,242.643a3.806,3.806,0,0,0-.09.746.383.383,0,0,0,.438.438,3.188,3.188,0,0,0,.373-.026l-.039.631a1.693,1.693,0,0,1-.618.09.866.866,0,0,1-.978-.9,4.488,4.488,0,0,1,.09-.875l.463-2.368H462l.129-.631h.669l.206-1.055Z" transform="translate(-424.528 -236.647)" fill="#fff"/>
    <path id="Path_9" data-name="Path 9" d="M487.914,231.307a2.793,2.793,0,0,1-2.586,2.934,1.779,1.779,0,0,1-1.827-1.917,2.8,2.8,0,0,1,2.586-2.96A1.783,1.783,0,0,1,487.914,231.307Zm-3.577.991c0,.759.412,1.313,1.094,1.313.939,0,1.66-1.21,1.66-2.3a1.149,1.149,0,0,0-1.094-1.3C485.005,230.007,484.323,231.23,484.336,232.3Zm2.355-4.838.6,1.377h-.6l-.36-.9h-.026l-.618.9h-.643l1.017-1.377Zm2.136-.759-1.171,1.248h-.489l.862-1.248Z" transform="translate(-443.262 -226.365)" fill="#fff"/>
    <path id="Path_10" data-name="Path 10" d="M525.94,238.5l-.245,1.248h1.12l-.129.631h-1.12l-.437,2.265a3.811,3.811,0,0,0-.09.746.383.383,0,0,0,.438.438,3.183,3.183,0,0,0,.373-.026l-.039.631a1.693,1.693,0,0,1-.618.09.866.866,0,0,1-.978-.9,4.488,4.488,0,0,1,.09-.875l.463-2.368H524.1l.129-.631h.669l.206-1.055Z" transform="translate(-478.637 -236.647)" fill="#fff"/>
    <path id="Path_11" data-name="Path 11" d="M559.2,238.146l1.3-6.846h.8l-.579,3.011h.013a2.023,2.023,0,0,1,1.673-.939,1.128,1.128,0,0,1,1.158,1.248,3.963,3.963,0,0,1-.077.785l-.515,2.728h-.8l.515-2.689a4.2,4.2,0,0,0,.051-.643.677.677,0,0,0-.721-.772,2.015,2.015,0,0,0-1.6,1.776l-.438,2.329H559.2Z" transform="translate(-509.221 -230.373)" fill="#fff"/>
    <path id="Path_12" data-name="Path 12" d="M604.77,242.2a1.893,1.893,0,0,1,.077.54.884.884,0,0,1-1,.978,2.121,2.121,0,0,1,.27,1.094,2.793,2.793,0,0,1-2.586,2.934,1.779,1.779,0,0,1-1.827-1.917,2.8,2.8,0,0,1,2.586-2.96,1.81,1.81,0,0,1,.8.167,1.582,1.582,0,0,0,.669.219.421.421,0,0,0,.451-.476,1.4,1.4,0,0,0-.09-.476Zm-4.234,3.6c0,.759.412,1.313,1.094,1.313.939,0,1.66-1.21,1.66-2.3a1.149,1.149,0,0,0-1.094-1.3C601.193,243.513,600.523,244.735,600.536,245.8Z" transform="translate(-544.509 -239.871)" fill="#fff"/>
    <path id="Path_13" data-name="Path 13" d="M638.5,252.174l.63-3.307c.1-.515.167-.978.219-1.364h.708l-.116.914h.026a2.03,2.03,0,0,1,1.724-1.017,1.151,1.151,0,0,1,1.184,1.3,4.05,4.05,0,0,1-.09.746l-.515,2.715h-.8l.515-2.689a2.981,2.981,0,0,0,.064-.592c0-.476-.18-.824-.734-.824a2.065,2.065,0,0,0-1.6,1.84l-.425,2.265h-.8Z" transform="translate(-578.316 -244.402)" fill="#fff"/>
  </g>
</svg>
