<svg xmlns="http://www.w3.org/2000/svg" xmlns:xlink="http://www.w3.org/1999/xlink" width="20" height="20" viewBox="0 0 20 20">
  <defs>
    <clipPath id="clip-path">
      <rect id="Rectangle_3897" data-name="Rectangle 3897" width="20" height="20" transform="translate(16 417)" fill="#ff000e"/>
    </clipPath>
  </defs>
  <g id="Mask_Group_2996" data-name="Mask Group 2996" transform="translate(-16 -417)" clip-path="url(#clip-path)">
    <path id="headset" d="M4.172,18.355A1.669,1.669,0,0,0,5.84,16.687V11.681a1.669,1.669,0,0,0-1.669-1.669V9.178a5.84,5.84,0,0,1,11.681,0v.834a1.669,1.669,0,0,0-1.669,1.669v5.006h-2.5a.834.834,0,1,0,0,1.669h4.172a4.172,4.172,0,0,0,1.669-7.99V9.178a7.509,7.509,0,0,0-15.018,0v1.188a4.172,4.172,0,0,0,1.669,7.99Z" transform="translate(15.988 416.988)" fill="#ff000e"/>
  </g>
</svg>
