<svg xmlns="http://www.w3.org/2000/svg" width="18.687" height="24" viewBox="0 0 18.687 24">
  <g id="Group_6342" data-name="Group 6342" transform="translate(-73.693 -494)">
    <path id="marker" d="M11.363.042c-5.158.006-9.338,4.471-9.344,9.98,0,2.57,1.863,6.592,5.537,11.954a4.539,4.539,0,0,0,7.613,0c3.674-5.362,5.537-9.384,5.537-11.954C20.7,4.513,16.52.048,11.363.042Z" transform="translate(71.674 493.958)" fill="#fff"/>
    <path id="path5083" d="M682.956,2.895a6.434,6.434,0,0,0-1.808.212,10.678,10.678,0,0,0-1.619.653s-.832.486-.045.854,1.987.954,1.987.954a3.291,3.291,0,0,0,1.479.313c1.049.039,1.568.022,1.568.022l.586-1.9s.391-.737-.647-.954A6.772,6.772,0,0,0,682.956,2.895Zm2.9.675c-.245-.006-.446.128-.4.424l.6,1.9h1.953s.519-.156.24-.508a8.193,8.193,0,0,0-1.881-1.619A.878.878,0,0,0,685.858,3.57Zm2.573,2.523a.691.691,0,0,0-.43.179L686.55,7.288s.324,1.088.463,1.423a4.059,4.059,0,0,0,.463.748l1.451,1.027a.3.3,0,0,0,.463-.095,4.521,4.521,0,0,0,.117-1.641,5.543,5.543,0,0,0-.759-2.5A.435.435,0,0,0,688.431,6.093Zm-6.441.134a1.3,1.3,0,0,0-.312.033l-4.164.207a.762.762,0,0,0-.8.625,6.51,6.51,0,0,0-.346,2.127,6.931,6.931,0,0,0,1.167,3.595.752.752,0,0,0,1.038.145s3.773-2.847,4.359-3.31a2.408,2.408,0,0,0,.759-1.183l.391-1.144-1.105-.77a1.7,1.7,0,0,0-.988-.324Zm3.343,1.881-1.278.927a3.634,3.634,0,0,0-.77,1.306c-.24.77-1.267,4.192-1.267,4.192s-.441,1,.932.966a6.849,6.849,0,0,0,3.555-.977,3.938,3.938,0,0,0,1.524-1.373s.257-.179.011-.854-.982-2.657-.982-2.657a3.064,3.064,0,0,0-.625-.687c-.374-.279-1.1-.843-1.1-.843Z" transform="translate(-599.867 494.367)" fill="#ff000e"/>
  </g>
</svg>
