<svg id="Flow-1" xmlns="http://www.w3.org/2000/svg" xmlns:xlink="http://www.w3.org/1999/xlink" width="20" height="20" viewBox="0 0 20 20">
  <defs>
    <clipPath id="clip-path">
      <rect id="Rectangle_1603" data-name="Rectangle 1603" width="20" height="20" transform="translate(8)" fill="#ff000e"/>
    </clipPath>
  </defs>
  <g id="Mask_Group_25" data-name="Mask Group 25" transform="translate(-8)" clip-path="url(#clip-path)">
    <path id="file-chart-line" d="M12,5.833V.383a5.814,5.814,0,0,1,2.054,1.325l2.9,2.9a5.8,5.8,0,0,1,1.326,2.053h-5.45A.834.834,0,0,1,12,5.833Zm6.667,2.9v7.1A4.171,4.171,0,0,1,14.5,20H6.167A4.171,4.171,0,0,1,2,15.833V4.167A4.171,4.171,0,0,1,6.167,0H9.929c.136,0,.27.011.4.02V5.833a2.5,2.5,0,0,0,2.5,2.5h5.813C18.656,8.467,18.667,8.6,18.667,8.737ZM7.833,15a.833.833,0,0,0-1.667,0v1.667a.833.833,0,0,0,1.667,0Zm3.333-4.167a.833.833,0,0,0-1.667,0v5.833a.833.833,0,0,0,1.667,0Zm3.333,2.5a.833.833,0,0,0-1.667,0v3.333a.833.833,0,0,0,1.667,0Z" transform="translate(8)" fill="#ff000e"/>
  </g>
</svg>
