<svg id="Component_16_3" data-name="Component 16 – 3" xmlns="http://www.w3.org/2000/svg" xmlns:xlink="http://www.w3.org/1999/xlink" width="24" height="24" viewBox="0 0 24 24">
  <defs>
    <clipPath id="clip-path">
      <rect id="Rectangle_3612" data-name="Rectangle 3612" width="24" height="24" transform="translate(294 124)" fill="#fff"/>
    </clipPath>
  </defs>
  <g id="Messenger2">
    <g id="Mask_Group_30" data-name="Mask Group 30" transform="translate(-294 -124)" clip-path="url(#clip-path)">
      <path id="bell" d="M22.555,13.662l-1.9-6.836A9.321,9.321,0,0,0,2.576,7.3L1.105,13.915A5,5,0,0,0,5.986,20H7.1a5,5,0,0,0,9.8,0h.838a5,5,0,0,0,4.818-6.338ZM12,22a3,3,0,0,1-2.816-2h5.632A3,3,0,0,1,12,22Zm8.126-5.185A2.977,2.977,0,0,1,17.737,18H5.986a3,3,0,0,1-2.928-3.651l1.47-6.616a7.321,7.321,0,0,1,14.2-.372l1.9,6.836a2.977,2.977,0,0,1-.5,2.618Z" transform="translate(294.014 123.998)" fill="#fff"/>
      <g id="Ellipse_114" data-name="Ellipse 114" transform="translate(310 124)" fill="#ffd500" stroke="#fafafa" stroke-width="1">
        <circle cx="4" cy="4" r="4" stroke="none"/>
        <circle cx="4" cy="4" r="3.5" fill="none"/>
      </g>
    </g>
  </g>
</svg>
