<svg id="Group_5141" data-name="Group 5141" xmlns="http://www.w3.org/2000/svg" xmlns:xlink="http://www.w3.org/1999/xlink" width="85.417" height="72" viewBox="0 0 85.417 72">
  <defs>
    <clipPath id="clip-path">
      <rect id="Rectangle_3915" data-name="Rectangle 3915" width="85.417" height="72" fill="none"/>
    </clipPath>
    <clipPath id="clip-path-2">
      <rect id="Rectangle_3910" data-name="Rectangle 3910" width="48.842" height="13.608" fill="none"/>
    </clipPath>
    <clipPath id="clip-path-3">
      <rect id="Rectangle_3911" data-name="Rectangle 3911" width="80.924" height="12.831" fill="none"/>
    </clipPath>
    <clipPath id="clip-path-4">
      <rect id="Rectangle_3912" data-name="Rectangle 3912" width="5.968" height="5.968" fill="#b4b4b4"/>
    </clipPath>
    <clipPath id="clip-path-5">
      <rect id="Rectangle_3913" data-name="Rectangle 3913" width="7.085" height="10.068" fill="none"/>
    </clipPath>
  </defs>
  <g id="Group_5140" data-name="Group 5140" clip-path="url(#clip-path)">
    <g id="Group_5139" data-name="Group 5139" transform="translate(2.246 1.893)">
      <g id="Group_5142" data-name="Group 5142">
        <g id="Group_5143" data-name="Group 5143">
          <g id="Group_5128" data-name="Group 5128" transform="translate(14.905 48.968)" opacity="0.08">
            <g id="Group_5127" data-name="Group 5127">
              <g id="Group_5126" data-name="Group 5126" clip-path="url(#clip-path-2)">
                <path id="Path_11895" data-name="Path 11895" d="M43.76,143.916l42.646-.145c6.134-.109,5.708,2.488,6.134,3.458,0,0,.423,9.733-.943,9.634s-4.791,2.568-5.078-3.373-.287-4.661-.287-4.661v-1.28l-42.472.282Z" transform="translate(-43.76 -143.767)"/>
              </g>
            </g>
          </g>
          <g id="Group_5131" data-name="Group 5131" transform="translate(0 55.382)" opacity="0.17">
            <g id="Group_5130" data-name="Group 5130">
              <g id="Group_5129" data-name="Group 5129" clip-path="url(#clip-path-3)">
                <path id="Path_11896" data-name="Path 11896" d="M80.924,169.014c0,3.542-18.117,6.417-40.464,6.417S0,172.556,0,169.014c0-1.553,3.481-2.977,9.275-4.087,7.422-1.42,18.638-2.326,31.186-2.326,7.064,0,13.706.286,19.483.79v3.379c0,.037,0,.078,0,.116a3.029,3.029,0,0,0,2.268,2.813,3.066,3.066,0,0,0,.756.1h.307a3.066,3.066,0,0,0,.756-.1,3.029,3.029,0,0,0,2.268-2.813c0-.037,0-.078,0-.116v-2.691c8.931,1.175,14.619,2.95,14.619,4.935" transform="translate(0 -162.6)" fill="#231f20"/>
              </g>
            </g>
          </g>
          <g id="Group_5134" data-name="Group 5134" transform="translate(68.717 26.378)" opacity="0.45">
            <g id="Group_5133" data-name="Group 5133">
              <g id="Group_5132" data-name="Group 5132" clip-path="url(#clip-path-4)">
                <path id="Path_11897" data-name="Path 11897" d="M207.052,79.762H205.4V78.11a.666.666,0,0,0-1.332,0v1.652h-1.652a.666.666,0,1,0,0,1.332h1.652v1.652a.666.666,0,0,0,1.332,0V81.094h1.652a.666.666,0,1,0,0-1.332" transform="translate(-201.75 -77.444)" fill="#b4b4b4"/>
              </g>
            </g>
          </g>
          <path id="Path_11898" data-name="Path 11898" d="M25.227,51.146h-.957v-.957a.386.386,0,0,0-.772,0v.957h-.957a.386.386,0,0,0,0,.772H23.5v.956a.386.386,0,1,0,.772,0v-.956h.957a.386.386,0,0,0,0-.772" transform="translate(-14.609 -32.84)" fill="rgba(210,213,219,0.94)"/>
          <path id="Path_11899" data-name="Path 11899" d="M97.262.5H49.976A6.216,6.216,0,0,0,43.76,6.716V51.877H88.8v8c0,.037,0,.078,0,.116a3.024,3.024,0,0,0,3.025,2.909h.307A3.024,3.024,0,0,0,95.157,60c0-.037,0-.078,0-.116v-8h-.02V6.379a3.133,3.133,0,0,1,3.13-3.13h.484a3.13,3.13,0,0,1,3.13,3.13V5.125A4.625,4.625,0,0,0,97.262.5ZM55.967,24.1a2.091,2.091,0,1,1,2.091,2.091A2.09,2.09,0,0,1,55.967,24.1ZM78.2,26.188A2.091,2.091,0,1,1,80.293,24.1,2.092,2.092,0,0,1,78.2,26.188Z" transform="translate(-28.855 -0.33)" fill="none" stroke="rgba(210,213,219,0.94)" stroke-width="1"/>
          <path id="Path_11900" data-name="Path 11900" d="M81.691,67.823a2.091,2.091,0,1,1,2.091-2.091,2.09,2.09,0,0,1-2.091,2.091" transform="translate(-52.488 -41.964)" fill="#fff"/>
          <circle id="Ellipse_382" data-name="Ellipse 382" cx="2.091" cy="2.091" r="2.091" transform="translate(27.112 21.676)" fill="none" stroke="rgba(210,213,219,0.94)" stroke-width="1"/>
          <path id="Path_11901" data-name="Path 11901" d="M142.923,65.731a2.091,2.091,0,1,1-2.091-2.091,2.092,2.092,0,0,1,2.091,2.091" transform="translate(-91.484 -41.964)" fill="#fff"/>
          <circle id="Ellipse_383" data-name="Ellipse 383" cx="2.091" cy="2.091" r="2.091" transform="translate(47.256 21.676)" fill="none" stroke="rgba(210,213,219,0.94)" stroke-width="1"/>
          <path id="Path_11902" data-name="Path 11902" d="M201.354,11.67v6.6H194.61v-6.6a3.133,3.133,0,0,1,3.13-3.13h.484a3.13,3.13,0,0,1,3.13,3.13" transform="translate(-128.325 -5.631)" fill="#fff"/>
          <path id="Path_11903" data-name="Path 11903" d="M201.354,11.67v6.6H194.61v-6.6a3.133,3.133,0,0,1,3.13-3.13h.484A3.13,3.13,0,0,1,201.354,11.67Z" transform="translate(-128.325 -5.631)" fill="none" stroke="rgba(210,213,219,0.94)" stroke-width="1"/>
          <g id="Group_5137" data-name="Group 5137" transform="translate(66.115 2.738)" opacity="0.08">
            <g id="Group_5136" data-name="Group 5136">
              <g id="Group_5135" data-name="Group 5135" clip-path="url(#clip-path-5)">
                <path id="Path_11904" data-name="Path 11904" d="M201.354,11.67v6.6H194.61v-6.6a3.133,3.133,0,0,1,3.13-3.13h.484a3.13,3.13,0,0,1,3.13,3.13" transform="translate(-194.44 -8.37)"/>
                <path id="Path_11905" data-name="Path 11905" d="M201.354,11.67v6.6H194.61v-6.6a3.133,3.133,0,0,1,3.13-3.13h.484A3.13,3.13,0,0,1,201.354,11.67Z" transform="translate(-194.44 -8.37)" fill="none" stroke="rgba(210,213,219,0.94)" stroke-width="1"/>
              </g>
            </g>
          </g>
          <path id="Path_11906" data-name="Path 11906" d="M83.783,65.731a2.091,2.091,0,1,1-2.091-2.091,2.092,2.092,0,0,1,2.091,2.091" transform="translate(-52.488 -41.964)" fill="#fff"/>
          <circle id="Ellipse_384" data-name="Ellipse 384" cx="2.091" cy="2.091" r="2.091" transform="translate(27.112 21.676)" fill="none" stroke="rgba(210,213,219,0.94)" stroke-width="1"/>
          <path id="Path_11907" data-name="Path 11907" d="M142.923,65.731a2.091,2.091,0,1,1-2.091-2.091,2.092,2.092,0,0,1,2.091,2.091" transform="translate(-91.484 -41.964)" fill="#fff"/>
          <circle id="Ellipse_385" data-name="Ellipse 385" cx="2.091" cy="2.091" r="2.091" transform="translate(47.256 21.676)" fill="none" stroke="rgba(210,213,219,0.94)" stroke-width="1"/>
          <path id="Path_11908" data-name="Path 11908" d="M84.261,159.634v1.754a2.937,2.937,0,0,1-2.939,2.936H31.069a3.84,3.84,0,0,1-3.839-3.839V151.78H77.9v7.854c0,.037,0,.078,0,.116a3.029,3.029,0,0,0,2.268,2.813,3.065,3.065,0,0,0,.756.1h.307a3.065,3.065,0,0,0,.756-.1,3.029,3.029,0,0,0,2.268-2.813c0-.037,0-.078,0-.116" transform="translate(-17.955 -100.083)" fill="#fff"/>
          <path id="Path_11909" data-name="Path 11909" d="M84.261,159.634v1.754a2.937,2.937,0,0,1-2.939,2.936H31.069a3.84,3.84,0,0,1-3.839-3.839V151.78H77.9v7.854c0,.037,0,.078,0,.116a3.029,3.029,0,0,0,2.268,2.813,3.065,3.065,0,0,0,.756.1h.307a3.065,3.065,0,0,0,.756-.1,3.029,3.029,0,0,0,2.268-2.813C84.261,159.713,84.261,159.672,84.261,159.634Z" transform="translate(-17.955 -100.083)" fill="none" stroke="rgba(210,213,219,0.94)" stroke-width="1"/>
          <path id="Path_11910" data-name="Path 11910" d="M85.74,103.869a14.64,14.64,0,0,1,20.69.968" transform="translate(-56.536 -65.975)" fill="none" stroke="rgba(210,213,219,0.94)" stroke-width="1.095"/>
          <rect id="Rectangle_3914" data-name="Rectangle 3914" width="80.924" height="68.213" fill="none"/>
        </g>
      </g>
    </g>
  </g>
</svg>
