<svg id="Read_all" xmlns="http://www.w3.org/2000/svg" xmlns:xlink="http://www.w3.org/1999/xlink" width="24" height="24" viewBox="0 0 24 24">
  <defs>
    <clipPath id="clip-path">
      <rect id="Rectangle_3757" data-name="Rectangle 3757" width="24" height="24" transform="translate(759 125)" fill="#fff"/>
    </clipPath>
  </defs>
  <g id="Mask_Group_2977" data-name="Mask Group 2977" transform="translate(-759 -125)" clip-path="url(#clip-path)">
    <path id="list-check" d="M4,22a2.982,2.982,0,0,1-2.122-.879L.334,19.746a1,1,0,1,1,1.332-1.494l1.585,1.414a1,1,0,0,0,1.456.04l3.6-3.431a1,1,0,1,1,1.378,1.448L6.1,21.137A2.964,2.964,0,0,1,4,22Zm19-1H13a1,1,0,1,1,0-2H23a1,1,0,0,1,0,2ZM4,14a2.982,2.982,0,0,1-2.122-.879L.293,11.536a1,1,0,1,1,1.414-1.414l1.586,1.585a1.023,1.023,0,0,0,1.414,0l3.6-3.431A1,1,0,0,1,9.689,9.724L6.1,13.138A2.964,2.964,0,0,1,4,14Zm19-1H13a1,1,0,1,1,0-2H23a1,1,0,0,1,0,2ZM4,6a2.982,2.982,0,0,1-2.122-.879L.334,3.747A1,1,0,1,1,1.666,2.253L3.251,3.667a1,1,0,0,0,1.456.04L8.311.276A1,1,0,0,1,9.689,1.724L6.1,5.138A2.964,2.964,0,0,1,4,6ZM23,5H13a1,1,0,1,1,0-2H23a1,1,0,0,1,0,2Z" transform="translate(759.001 125.989)" fill="#fff"/>
  </g>
</svg>
