<svg xmlns="http://www.w3.org/2000/svg" xmlns:xlink="http://www.w3.org/1999/xlink" width="16" height="16" viewBox="0 0 16 16">
  <defs>
    <clipPath id="clip-path">
      <rect id="Rectangle_1610" data-name="Rectangle 1610" width="16" height="16" fill="#fff"/>
    </clipPath>
  </defs>
  <g id="Scan" style="mix-blend-mode: normal;isolation: isolate">
    <g id="Mask_Group_2978" data-name="Mask Group 2978" clip-path="url(#clip-path)">
      <g id="barcode-read" transform="translate(0 1.333)">
        <path id="Path_11862" data-name="Path 11862" d="M3.333,12.667A.666.666,0,0,1,2.667,12V5.333A.667.667,0,1,1,4,5.333V12A.666.666,0,0,1,3.333,12.667ZM6.667,12V5.333a.667.667,0,1,0-1.333,0V12a.667.667,0,0,0,1.333,0Zm6.667,0V5.333a.667.667,0,0,0-1.333,0V12a.667.667,0,0,0,1.333,0Zm-4-.333v-6a1,1,0,0,0-2,0v6a1,1,0,0,0,2,0Zm-4.667,3A.666.666,0,0,0,4,14H2.667a1.335,1.335,0,0,1-1.333-1.333V11.333a.667.667,0,1,0-1.333,0v1.333a2.669,2.669,0,0,0,2.667,2.667H4A.666.666,0,0,0,4.667,14.667Zm11.333-2V11.333a.667.667,0,1,0-1.333,0v1.333A1.335,1.335,0,0,1,13.333,14H12a.667.667,0,0,0,0,1.333h1.333A2.669,2.669,0,0,0,16,12.667ZM16,6V4.667A2.669,2.669,0,0,0,13.333,2H12a.667.667,0,0,0,0,1.333h1.333a1.335,1.335,0,0,1,1.333,1.333V6A.667.667,0,1,0,16,6ZM1.333,6V4.667A1.335,1.335,0,0,1,2.667,3.333H4A.667.667,0,1,0,4,2H2.667A2.669,2.669,0,0,0,0,4.667V6A.667.667,0,0,0,1.333,6Z" transform="translate(0 -2)" fill="#fff"/>
        <g id="Group_4167" data-name="Group 4167" transform="translate(10 2.667)">
          <rect id="Rectangle_3758" data-name="Rectangle 3758" width="0.667" height="8" rx="0.333" fill="#fff"/>
          <path id="Path_11863" data-name="Path 11863" d="M15.333,6A.333.333,0,0,0,15,6.333v7.333a.333.333,0,0,0,.667,0V6.333A.333.333,0,0,0,15.333,6Z" transform="translate(-15 -6)" fill="#fff"/>
        </g>
      </g>
    </g>
  </g>
</svg>
