<svg xmlns="http://www.w3.org/2000/svg" width="385.791" height="369.799" viewBox="0 0 385.791 369.799">
  <path id="path5083" d="M869.655,2.9C850,2.74,830.68,4.869,816.6,9.126a313.288,313.288,0,0,0-47.49,19.16s-24.4,14.247-1.31,25.055c23.09,10.644,58.3,28,58.3,28s12.609,7.86,43.4,9.17c30.786,1.146,46.016.655,46.016.655L932.7,35.491s11.463-21.616-19-28C900.442,4.377,884.884,2.9,869.655,2.9Zm85.154,19.815c-7.205-.164-13.1,3.766-11.626,12.446L960.7,90.842h57.316s15.229-4.585,7.041-14.9S984.45,34.509,969.875,28.45A25.752,25.752,0,0,0,954.809,22.718ZM1030.3,96.737c-6.878-.164-12.61,5.24-12.61,5.24l-42.577,29.8s9.5,31.933,13.592,41.758,13.592,21.944,13.592,21.944l42.577,30.132s8.516,6.387,13.592-2.784,3.439-28.985,3.439-48.145-12.118-62.719-22.271-73.364A12.758,12.758,0,0,0,1030.3,96.737Zm-188.977,3.93a38.28,38.28,0,0,0-9.17.983l-122.164,6.059c-20.306-.655-23.418,18.341-23.418,18.341s-8.843,20.961-10.153,62.392,22.271,88.593,34.226,105.46c12.118,16.7,30.459,4.258,30.459,4.258S851.806,214.643,869,201.051c17.195-13.756,22.271-34.717,22.271-34.717l11.463-33.57-32.424-22.6a49.729,49.729,0,0,0-28.985-9.5Zm98.091,55.187-37.5,27.184s-15.557,15.885-22.6,38.319c-7.042,22.6-37.173,122.982-37.173,122.982s-12.937,29.313,27.348,28.33c35.863-.819,69.106-7.533,104.314-28.658,35.208-20.961,44.706-40.285,44.706-40.285s7.533-5.24.328-25.055c-7.369-19.815-28.822-77.949-28.822-77.949a89.805,89.805,0,0,0-18.341-20.142c-10.972-8.188-32.26-24.727-32.26-24.727Z" transform="translate(-676.368 -2.895)" fill="#ff000e" opacity="0.1"/>
</svg>
