<svg xmlns="http://www.w3.org/2000/svg" xmlns:xlink="http://www.w3.org/1999/xlink" width="20" height="20" viewBox="0 0 20 20">
  <defs>
    <clipPath id="clip-path">
      <rect id="Rectangle_3897" data-name="Rectangle 3897" width="20" height="20" fill="#ff000e"/>
    </clipPath>
  </defs>
  <g id="Mask_Group_2994" data-name="Mask Group 2994" clip-path="url(#clip-path)">
    <path id="users-alt" d="M10,13.333A3.333,3.333,0,1,1,13.333,10,3.333,3.333,0,0,1,10,13.333Zm-5.264,0H.833A.833.833,0,0,1,0,12.5,5.018,5.018,0,0,1,4.276,7.57a.833.833,0,0,1,.917,1.055A5.007,5.007,0,0,0,5,10a4.947,4.947,0,0,0,.488,2.142.833.833,0,0,1-.75,1.192ZM14.167,20H5.833A.833.833,0,0,1,5,19.167a5,5,0,1,1,10,0,.833.833,0,0,1-.833.833ZM15,6.667a3.333,3.333,0,1,1,3.333-3.333A3.333,3.333,0,0,1,15,6.667Zm-10,0A3.333,3.333,0,1,1,8.333,3.333,3.333,3.333,0,0,1,5,6.667Zm14.167,6.667h-3.9a.833.833,0,0,1-.75-1.192A4.948,4.948,0,0,0,15,10a5.007,5.007,0,0,0-.2-1.375.833.833,0,0,1,.921-1.055A5.018,5.018,0,0,1,20,12.5.833.833,0,0,1,19.167,13.333Z" fill="#ff000e"/>
  </g>
</svg>
