<svg xmlns="http://www.w3.org/2000/svg" width="197.878" height="64.273" viewBox="0 0 197.878 64.273">
  <g id="Vietlott_logo" transform="translate(-2.8 -2.895)">
    <path id="path5116" d="M5.259,58.1a7.259,7.259,0,0,0-2.459.522S4.65,72.639,5.325,76.6s3.2,6.486,7.335,6.486,7.008-5.028,7.008-5.028L29.789,58.8c-6.921-2.22-8.858,2.96-8.858,2.96L14.684,73.336s-1.023,2.829-2.024,2.742S11.4,74.141,11.4,74.141,9.787,62.888,9.286,60.864a3.476,3.476,0,0,0-3.461-2.742A4.734,4.734,0,0,0,5.259,58.1Zm116.7.022s-6.029-.087-7.117,5.463-2.438,13.364-2.438,13.364-1.349,5.659,5.137,5.877a5.964,5.964,0,0,0,6.377-5.42s-5.528,1.415-4.9-2.111l1.306-7.074s5.093.522,6.029-5.311h-5.18Zm13.951,0s-6.029-.087-7.117,5.463-2.438,13.364-2.438,13.364-1.349,5.659,5.137,5.877a5.964,5.964,0,0,0,6.377-5.42s-5.528,1.415-4.9-2.111l1.306-7.074s5.093.522,6.029-5.311h-5.18Zm-54.783,0a10.005,10.005,0,0,0-1.088.065l-3.33,18.87s-1.437,5.55,4.984,5.42c6.4-.131,6.442-5.354,6.442-5.354s-5.267,1.654-4.723-1.937c.544-3.613,2.111-12.341,2.111-12.341s.631-4.767-4.4-4.723Zm-11.579.065a6.683,6.683,0,0,0-6.682,5.245L60.63,76.905S59.193,82.89,65.9,82.738a6.238,6.238,0,0,0,6.072-5.354S67.66,78.8,67.029,76.013L68.422,68.2s5.311.7,5.9-5.311H69.336l.718-4.7a2.524,2.524,0,0,1-.5,0Zm32.212,4.222s-11.84.087-13.407,11.71c0,0-.457,8.793,9.86,8.706,0,0,11.47.131,12.733-11.949C110.015,62.322,101.766,62.409,101.766,62.409ZM50.9,62.5a15.544,15.544,0,0,0-6.987,1.937s-6.247,3.482-5.572,9.99c0,0-.261,8.336,9.62,8.663,0,0,7.966-.152,10.077-7.074-2,1.828-8.467,3.4-11.8.131C41.825,70.2,47.9,66.915,47.9,66.915c4.679-1.458,5.267,1.872,5.267,1.872-.087,5.093-6.29,4.135-6.29,4.135s2.612,4.375,9.533.892c0,0,5.485-2.742,1.676-8.663A9.893,9.893,0,0,0,50.9,62.5Zm-16.15,3.112s-5.7-.152-6.834,3.722a49.945,49.945,0,0,0-1.524,8.053s-.936,5.311,5.311,5.507a5.78,5.78,0,0,0,6.2-5.376s-5.049,1.219-4.9-1.611c.2-2.851,1.741-10.295,1.741-10.295Zm66.1,1.937c.979.131,3.243.784,3.569,4.092a6.076,6.076,0,0,1-5.376,5.9,2.048,2.048,0,0,1-.892-.044,4.1,4.1,0,0,1-3.352-4,6.644,6.644,0,0,1,5.245-5.92A2.485,2.485,0,0,1,100.852,67.546Z" transform="translate(0 -43.19)" fill="#001452"/>
    <path id="path5108" d="M134.85,58.292c-1.763,0-4.266.435-5.006,2.655l-.544,3.069s5.7.718,6.573-1.872a21.018,21.018,0,0,0,.849-3.722A10.052,10.052,0,0,0,134.85,58.292Z" transform="translate(-98.967 -43.339)" fill="#ff000e"/>
    <path id="path5083" d="M702.058,2.9a25.089,25.089,0,0,0-7.052.827,41.639,41.639,0,0,0-6.312,2.547s-3.243,1.894-.174,3.33c3.069,1.415,7.748,3.722,7.748,3.722s1.676,1.045,5.768,1.219c4.092.152,6.116.087,6.116.087l2.285-7.4s1.524-2.873-2.525-3.722A26.411,26.411,0,0,0,702.058,2.9Zm11.318,2.634c-.958-.022-1.741.5-1.545,1.654l2.329,7.4h7.618s2.024-.609.936-1.981-5.4-5.507-7.335-6.312A3.423,3.423,0,0,0,713.376,5.529Zm10.034,9.838a2.7,2.7,0,0,0-1.676.7l-5.659,3.961s1.262,4.244,1.807,5.55a15.856,15.856,0,0,0,1.807,2.917l5.659,4a1.174,1.174,0,0,0,1.806-.37c.675-1.219.457-3.852.457-6.4s-1.611-8.336-2.96-9.751A1.7,1.7,0,0,0,723.409,15.367Zm-25.117.522a5.088,5.088,0,0,0-1.219.131l-16.237.805a2.971,2.971,0,0,0-3.112,2.438,25.383,25.383,0,0,0-1.349,8.292c-.174,5.507,2.96,11.775,4.549,14.017,1.611,2.22,4.048.566,4.048.566s14.713-11.1,17-12.907a9.392,9.392,0,0,0,2.96-4.614l1.524-4.462-4.31-3a6.61,6.61,0,0,0-3.852-1.262Zm13.037,7.335-4.984,3.613a14.174,14.174,0,0,0-3,5.093c-.936,3-4.941,16.346-4.941,16.346s-1.719,3.9,3.635,3.765A26.711,26.711,0,0,0,715.9,48.232c4.68-2.786,5.942-5.354,5.942-5.354s1-.7.044-3.33c-.979-2.634-3.831-10.36-3.831-10.36a11.936,11.936,0,0,0-2.438-2.677c-1.458-1.088-4.288-3.287-4.288-3.287Z" transform="translate(-526.965)" fill="#ff000e"/>
    <g id="Group_1" data-name="Group 1" transform="translate(39.365 51.04)">
      <path id="Path_1" data-name="Path 1" d="M178.091,244a7.065,7.065,0,0,1-2.851.522c-2.764,0-4.44-1.741-4.44-4.549a6.783,6.783,0,0,1,2.351-5.289,6.246,6.246,0,0,1,4.135-1.48,4.245,4.245,0,0,1,2.372.544l-.435,1.088a4.906,4.906,0,0,0-5.332.784,5.77,5.77,0,0,0-1.676,4.179c0,1.981.892,3.591,3.352,3.591a5.336,5.336,0,0,0,2.351-.479Z" transform="translate(-170.8 -231.219)" fill="#001452"/>
      <path id="Path_2" data-name="Path 2" d="M219.275,242.2a3.2,3.2,0,0,1,.131.914,1.5,1.5,0,0,1-1.7,1.654,3.588,3.588,0,0,1,.457,1.85c0,2.438-1.719,4.962-4.375,4.962a3.01,3.01,0,0,1-3.091-3.243c0-2.59,1.807-5.006,4.375-5.006a3.061,3.061,0,0,1,1.349.283,2.676,2.676,0,0,0,1.132.37.712.712,0,0,0,.762-.805,2.366,2.366,0,0,0-.152-.805Zm-7.161,6.094c0,1.284.7,2.22,1.85,2.22,1.589,0,2.808-2.046,2.808-3.9a1.943,1.943,0,0,0-1.85-2.2C213.247,244.42,212.093,246.488,212.115,248.294Z" transform="translate(-202.016 -238.26)" fill="#001452"/>
      <path id="Path_3" data-name="Path 3" d="M263.1,242.879l2.2-11.579h1.349l-.979,5.093h.022a3.422,3.422,0,0,1,2.829-1.589,1.909,1.909,0,0,1,1.959,2.111,6.7,6.7,0,0,1-.131,1.328l-.871,4.614h-1.349l.871-4.549a7.091,7.091,0,0,0,.087-1.088,1.146,1.146,0,0,0-1.219-1.306c-1.045,0-2.372,1.219-2.7,3l-.74,3.939H263.1Z" transform="translate(-243.011 -229.733)" fill="#001452"/>
      <path id="Path_4" data-name="Path 4" d="M311.065,239.5c0,2.438-1.719,4.962-4.375,4.962a3.01,3.01,0,0,1-3.091-3.243c0-2.59,1.806-5.006,4.375-5.006A3.015,3.015,0,0,1,311.065,239.5Zm-6.051,1.676c0,1.284.7,2.22,1.85,2.22,1.589,0,2.808-2.046,2.808-3.9a1.943,1.943,0,0,0-1.85-2.2C306.125,237.3,304.993,239.368,305.015,241.175Zm.457,5.245a.832.832,0,0,1,.849-.827.839.839,0,0,1,0,1.676A.85.85,0,0,1,305.472,246.42Zm3.657-13.32,1.132,2.329h-1l-.7-1.5h-.022l-1.132,1.5h-1.088l1.872-2.329Z" transform="translate(-274.696 -231.141)" fill="#001452"/>
      <path id="Path_5" data-name="Path 5" d="M342.2,244.913l1.524-7.9h1.349l-1.524,7.9Zm1.763-10.1a.9.9,0,0,1,.892-.914.789.789,0,0,1,.805.849.892.892,0,0,1-.914.914A.773.773,0,0,1,343.963,234.814Z" transform="translate(-304.895 -231.767)" fill="#001452"/>
      <path id="Path_6" data-name="Path 6" d="M379.96,233l.3-1.7h1.349l-.326,1.7h1.306l-.152.871h-1.306l-1.241,6.53c-.152.805-.283,1.719-.348,2.5h-1.241l.218-1.567H378.5a3.357,3.357,0,0,1-2.829,1.741c-1.524,0-2.372-1.262-2.372-2.873,0-2.808,2.089-5.376,4.875-5.376a3.3,3.3,0,0,1,1.393.283l.218-1.219h-3.178l.152-.871h3.2Zm-.588,3.221a2.546,2.546,0,0,0-1.306-.326c-1.894,0-3.352,2-3.352,4.114,0,.936.326,1.937,1.48,1.937,1.045,0,2.307-1.2,2.634-2.96Z" transform="translate(-329.226 -229.733)" fill="#001452"/>
      <path id="Path_7" data-name="Path 7" d="M418.315,236.789a5.376,5.376,0,0,1-2.612.609,2.839,2.839,0,0,1-3-3.156c0-2.372,1.763-5.071,4.309-5.071a2.041,2.041,0,0,1,2.307,2.024c0,2.068-2.329,2.634-5.245,2.568a3.344,3.344,0,0,0,.152,1.5,1.8,1.8,0,0,0,1.763,1.066,4.316,4.316,0,0,0,2.111-.544Zm-1.5-6.551c-1.284,0-2.242,1.262-2.568,2.5,2.111.022,3.787-.261,3.787-1.48C418.011,230.586,417.532,230.238,416.814,230.238Zm.914-4.288,1.023,2.329h-1.023l-.609-1.524h-.044l-1.023,1.524h-1.088l1.719-2.329Zm1.023.675c.348-.609,1-.762,1-1.284a.485.485,0,0,0-.5-.457,1.4,1.4,0,0,0-.871.479l-.414-.435a2,2,0,0,1,1.545-.827,1.131,1.131,0,0,1,1.241,1.066c0,.849-.892,1.11-1.328,1.741Z" transform="translate(-360.05 -224.1)" fill="#001452"/>
      <path id="Path_8" data-name="Path 8" d="M465.069,238.5l-.414,2.111h1.894l-.218,1.066h-1.894l-.74,3.831a6.442,6.442,0,0,0-.152,1.262.648.648,0,0,0,.74.74,5.39,5.39,0,0,0,.631-.044l-.065,1.066a2.864,2.864,0,0,1-1.045.152,1.465,1.465,0,0,1-1.654-1.524,7.589,7.589,0,0,1,.152-1.48l.784-4H462l.218-1.066h1.132l.348-1.785Z" transform="translate(-398.62 -235.366)" fill="#001452"/>
      <path id="Path_9" data-name="Path 9" d="M490.965,234.492c0,2.438-1.719,4.962-4.375,4.962a3.01,3.01,0,0,1-3.091-3.243c0-2.59,1.807-5.006,4.375-5.006A3.015,3.015,0,0,1,490.965,234.492Zm-6.051,1.676c0,1.284.7,2.22,1.85,2.22,1.589,0,2.808-2.046,2.808-3.9a1.943,1.943,0,0,0-1.85-2.2C486.046,232.294,484.893,234.361,484.915,236.168Zm3.983-8.184,1.023,2.329H488.9l-.609-1.524h-.044l-1.045,1.524h-1.088l1.719-2.329Zm3.613-1.284-1.981,2.111H489.7l1.458-2.111Z" transform="translate(-415.441 -226.134)" fill="#001452"/>
      <path id="Path_10" data-name="Path 10" d="M527.212,238.5l-.414,2.111h1.894l-.218,1.066h-1.894l-.74,3.831a6.444,6.444,0,0,0-.152,1.262.648.648,0,0,0,.74.74,5.389,5.389,0,0,0,.631-.044l-.065,1.066a2.863,2.863,0,0,1-1.045.152,1.465,1.465,0,0,1-1.654-1.524,7.594,7.594,0,0,1,.152-1.48l.784-4H524.1l.218-1.066h1.132l.348-1.785Z" transform="translate(-447.204 -235.366)" fill="#001452"/>
      <path id="Path_11" data-name="Path 11" d="M559.2,242.879l2.2-11.579h1.349l-.979,5.093h.022a3.422,3.422,0,0,1,2.829-1.589,1.909,1.909,0,0,1,1.959,2.111,6.7,6.7,0,0,1-.131,1.328l-.871,4.614h-1.349l.871-4.549a7.091,7.091,0,0,0,.087-1.088,1.146,1.146,0,0,0-1.219-1.306c-1.045,0-2.372,1.219-2.7,3l-.74,3.939H559.2Z" transform="translate(-474.664 -229.733)" fill="#001452"/>
      <path id="Path_12" data-name="Path 12" d="M608.275,242.2a3.2,3.2,0,0,1,.131.914,1.5,1.5,0,0,1-1.7,1.654,3.589,3.589,0,0,1,.457,1.85c0,2.438-1.719,4.962-4.375,4.962a3.01,3.01,0,0,1-3.091-3.243c0-2.59,1.807-5.006,4.375-5.006a3.061,3.061,0,0,1,1.349.283,2.676,2.676,0,0,0,1.132.37.712.712,0,0,0,.762-.805,2.366,2.366,0,0,0-.152-.805Zm-7.161,6.094c0,1.284.7,2.22,1.85,2.22,1.589,0,2.808-2.046,2.808-3.9a1.943,1.943,0,0,0-1.85-2.2C602.225,244.42,601.093,246.488,601.115,248.294Z" transform="translate(-506.35 -238.26)" fill="#001452"/>
      <path id="Path_13" data-name="Path 13" d="M638.5,255.475l1.066-5.594c.174-.871.283-1.654.37-2.307h1.2l-.2,1.545h.044A3.434,3.434,0,0,1,643.9,247.4a1.947,1.947,0,0,1,2,2.2,6.859,6.859,0,0,1-.152,1.262l-.871,4.592h-1.349l.871-4.549a5.037,5.037,0,0,0,.109-1c0-.805-.3-1.393-1.241-1.393-.958,0-2.329,1.154-2.7,3.112l-.718,3.831H638.5Z" transform="translate(-536.705 -242.329)" fill="#001452"/>
    </g>
  </g>
</svg>
